<svg width="330" height="330" viewBox="0 0 330 330" fill="none" xmlns="http://www.w3.org/2000/svg">
<path fill-rule="evenodd" clip-rule="evenodd" d="M20 0C8.95432 0 0 8.95435 0 20V310C0 321.046 8.95432 330 20 330H310C321.046 330 330 321.046 330 310V20C330 8.95435 321.046 0 310 0H20ZM291.571 72.8313C295.367 77.4663 298.086 83.0767 299.303 89.2075C299.759 91.5737 300 94.019 299.999 96.4912V233.513C299.999 238.769 298.922 243.788 296.935 248.351V248.385C295.052 252.741 292.334 256.682 289.028 259.987C288.191 260.824 287.354 261.593 286.448 262.323C280.007 267.723 271.607 270.963 262.548 270.963H67.4525C58.3959 270.963 50.0327 267.723 43.5538 262.357C42.6452 261.593 41.8125 260.824 40.974 259.987C37.666 256.682 34.947 252.741 33.1029 248.385C31.1148 243.822 30 238.769 30 233.512V96.4912C30 94.019 30.2447 91.5737 30.7309 89.2075C31.9142 83.0767 34.6327 77.4656 38.4312 72.8313C39.2338 71.8215 40.0702 70.9172 40.9745 70.0127C47.7325 63.2532 57.1392 59.0366 67.4525 59.0366H262.548C272.861 59.0366 282.301 63.2532 289.028 70.0127C289.934 70.9172 290.77 71.8215 291.571 72.8313ZM67.4525 78.197C62.3657 78.197 57.8723 80.2205 54.5262 83.5627C53.9346 84.1582 53.3771 84.7837 52.9247 85.4429L155.141 174.599C157.999 177.071 161.481 178.292 165 178.292C168.555 178.292 172.039 177.071 174.859 174.599L277.115 85.4807C276.623 84.8215 276.065 84.1582 275.474 83.5627C272.167 80.2205 267.634 78.197 262.548 78.197H67.4525ZM49.1605 105.271V233.512C49.1605 233.792 49.1605 234.067 49.1979 234.312L123.159 169.825L49.1605 105.271ZM58.3959 249.399C61.041 250.928 64.1403 251.799 67.4525 251.799H262.548C265.86 251.799 268.959 250.928 271.608 249.399L193.603 181.393L186.322 187.731C180.225 193.028 172.597 195.711 165 195.711C157.442 195.711 149.813 193.028 143.716 187.731L136.431 181.393L58.3959 249.399ZM280.834 233.961C280.839 233.815 280.839 233.664 280.839 233.512V105.305L206.843 169.863L280.804 234.312C280.82 234.2 280.829 234.082 280.834 233.961Z" fill="#7596BB"/>
</svg>
