<svg width="330" height="330" viewBox="0 0 330 330" fill="none" xmlns="http://www.w3.org/2000/svg">
<path fill-rule="evenodd" clip-rule="evenodd" d="M20 0C8.95428 0 0 8.95435 0 20V310C0 321.046 8.95428 330 20 330H310C321.046 330 330 321.046 330 310V20C330 8.95435 321.046 0 310 0H20ZM212.364 49.3665C227.405 55.6062 241.054 64.7769 252.516 76.3445C264.058 87.8262 273.199 101.479 279.442 116.514C285.685 131.551 288.891 147.673 288.875 163.954C288.812 232.266 233.219 287.86 164.969 287.86H164.906C144.218 287.855 123.859 282.671 105.688 272.782L40 290.001L57.5156 225.798C46.7188 206.969 41 185.704 41 163.844C41.0625 95.5945 96.6719 40.0007 164.906 40.0007C181.19 39.9431 197.323 43.1267 212.364 49.3665ZM112.469 252.516C128.339 261.932 146.453 266.897 164.906 266.891C221.641 266.891 267.844 220.751 267.906 163.891C267.939 150.367 265.294 136.97 260.124 124.473C254.953 111.976 247.36 100.626 237.781 91.0789C228.236 81.4939 216.888 73.8931 204.391 68.7146C191.894 63.5364 178.496 60.8828 164.969 60.907C108.188 60.907 61.9844 107.126 61.9844 163.782C61.9476 183.157 67.4033 202.146 77.7188 218.548L80.1562 222.469L69.75 260.485L108.719 250.266L112.469 252.516ZM200.25 179.704C203.109 180.766 218.312 188.251 221.391 189.798C222.006 190.105 222.581 190.382 223.114 190.638C225.259 191.671 226.715 192.371 227.328 193.423C228.109 194.719 228.109 200.907 225.547 208.157C222.938 215.391 210.578 221.985 204.641 222.891C199.297 223.657 192.594 224.016 185.172 221.641C180.656 220.204 174.875 218.313 167.531 215.11C138.336 202.487 118.697 174.158 115.155 169.049C114.926 168.719 114.765 168.486 114.672 168.36L114.647 168.327C112.994 166.129 102.016 151.531 102.016 136.344C102.016 122.008 109.031 114.534 112.24 111.115C112.448 110.893 112.64 110.689 112.812 110.501C113.85 109.323 115.12 108.372 116.542 107.708C117.964 107.043 119.509 106.68 121.078 106.641C123.156 106.641 125.234 106.641 127.016 106.751C127.238 106.76 127.468 106.756 127.707 106.753C129.515 106.726 131.76 106.693 133.969 112.063C135.071 114.664 136.809 118.89 138.508 123.021C140.831 128.668 143.08 134.138 143.531 135.032C144.297 136.579 144.781 138.36 143.766 140.454C143.62 140.75 143.484 141.032 143.354 141.301C142.58 142.904 142.01 144.085 140.672 145.61C140.096 146.273 139.497 147.001 138.901 147.725C137.895 148.945 136.9 150.153 136.047 151.016C134.5 152.563 132.891 154.219 134.672 157.313C136.516 160.391 142.688 170.548 151.906 178.751C161.733 187.55 170.294 191.279 174.667 193.183C175.551 193.568 176.264 193.879 176.781 194.141C179.875 195.673 181.719 195.438 183.5 193.36C185.281 191.344 191.219 184.329 193.297 181.251C195.328 178.157 197.406 178.688 200.25 179.704Z" fill="#7596BB"/>
</svg>
